<mxfile host="app.diagrams.net" modified="2023-09-26T07:07:44.185Z" agent="Mozilla/5.0 (Macintosh; Intel Mac OS X 10_15_7) AppleWebKit/537.36 (KHTML, like Gecko) Chrome/116.0.0.0 Safari/537.36" version="21.8.2" etag="vsQFFuoyYUuV9yeL0NBX" type="github">
  <diagram name="Page-1" id="mMeh5OXnmI-3QyB6C61k">
    <mxGraphModel>
      <root>
        <mxCell id="0" />
        <mxCell id="1" parent="0" />
      </root>
    </mxGraphModel>
  </diagram>
</mxfile>
